<?xml version="1.0" encoding="UTF-8" standalone="no"?>
<svg
   version="1.1"
   viewBox="0 0 1400 420"
   id="svg10"
   sodipodi:docname="titlepage.svg"
   xmlns:inkscape="http://www.inkscape.org/namespaces/inkscape"
   xmlns:sodipodi="http://sodipodi.sourceforge.net/DTD/sodipodi-0.dtd"
   xmlns="http://www.w3.org/2000/svg"
   xmlns:svg="http://www.w3.org/2000/svg">
  <defs
     id="defs14" />
  <sodipodi:namedview
     id="namedview12"
     pagecolor="#ffffff"
     bordercolor="#000000"
     borderopacity="0.25"
     inkscape:showpageshadow="2"
     inkscape:pageopacity="0.0"
     inkscape:pagecheckerboard="0"
     inkscape:deskcolor="#d1d1d1" />
  <title
     id="title2">The titlepage for Din Xi Gu Er Yuan Ji Shi</title>
  <style
     type="text/css"
     id="style4">
		text{
			font-family: &quot;Source Han Sans HC&quot;;
			letter-spacing: 5px;
			text-anchor: middle;
		}

		.title{
			font-size: 150px;
		}

		.author{
			font-size: 105px;
		}

	</style>
  <g
     aria-label="定西孤儿院纪事"
     id="text6"
     class="title"
     style="font-size:150px;font-family:'Source Han Sans HC';letter-spacing:5px;text-anchor:middle">
    <path
       d="m 297.69531,50.429687 v 25.78125 H 285.39062 V 60.976562 H 184.02344 V 75.625 H 172.30469 V 50.429687 h 58.00781 l -5.27344,-9.375 11.71875,-3.515625 q 4.6875,5.859375 7.03125,12.890625 z M 187.53906,80.3125 h 94.92188 V 90.859375 H 242.03125 V 117.22656 H 281.875 v 10.54688 h -39.84375 v 28.125 l 60.9375,1.17187 -4.10156,12.30469 h -24.60938 q -39.25781,0 -53.32031,-5.85938 -13.47656,-5.27343 -23.4375,-20.50781 -7.03125,16.40625 -20.50781,29.88281 l -8.78907,-8.78906 q 24.60938,-26.95312 28.71094,-61.52343 l 11.71875,2.92968 q -1.75781,13.47657 -6.44531,25.78125 11.71875,19.33594 27.53906,22.85156 V 90.859375 h -42.1875 z"
       id="path16" />
    <path
       d="m 448.00781,79.140625 v 94.335935 h -11.71875 v -11.13281 h -92.57812 v 11.13281 H 331.99219 V 79.140625 h 36.32812 V 54.53125 H 323.78906 V 43.398437 H 456.21094 V 54.53125 H 412.26562 V 79.140625 Z M 400.54687,54.53125 h -20.50781 v 24.609375 h 20.50781 z m -56.83593,96.67969 h 92.57812 v -22.85157 l -9.375,0.58594 q -17.57812,0 -21.67969,-2.34375 -4.6875,-3.51562 -4.6875,-11.71875 V 90.273437 h -20.50781 q 0,26.367193 -26.36719,41.601563 l -7.03125,-11.13281 q 21.67969,-11.71875 21.67969,-30.468753 h -24.60937 z m 68.55468,-60.937503 v 21.679693 q 0,3.51562 2.34375,4.6875 2.34375,0.58593 12.30469,0.58593 l 9.375,-0.58593 V 90.273437 Z"
       id="path18" />
    <path
       d="M 523.32031,93.203125 525.66406,103.75 507.5,113.125 v 48.63281 q 0,11.13281 -15.23438,11.13281 l -11.13281,-0.58593 -1.75781,-11.13282 9.96094,0.58594 q 6.44531,0 6.44531,-1.75781 v -42.1875 l -14.0625,5.27344 -4.10156,-11.13281 18.16406,-6.44532 V 80.898437 L 515.70312,55.703125 H 479.375 v -9.960938 h 48.63281 V 56.875 L 507.5,86.757812 v 14.062498 z m 70.89844,-54.492188 8.78906,9.960938 -12.30469,2.929687 q 2.92969,71.484378 24.02344,112.499998 l -8.20312,9.96094 Q 584.25781,133.63281 580.15625,53.359375 l -12.30469,2.34375 v 98.437495 l 10.54688,-4.10156 -6.44532,-16.40625 8.78907,-4.10156 q 8.20312,17.57812 14.0625,38.67187 l -9.96094,4.6875 -3.51563,-14.0625 -18.75,7.61719 -5.27343,-4.6875 V 57.460937 l -11.71875,1.171875 v 25.195313 q 0,55.664065 -13.47657,90.234375 l -9.96093,-6.44531 q 12.30468,-32.22657 12.30468,-86.132815 v -32.8125 q 32.8125,-2.929688 59.76563,-9.960938 z"
       id="path20" />
    <path
       d="m 710.54687,43.984375 h 11.71875 V 155.3125 q 0,2.34375 2.34375,3.51562 2.34375,0.58594 15.82032,0.58594 8.78906,0 11.71875,-3.51562 2.92968,-3.51563 4.10156,-19.33594 l 11.13281,4.6875 q -2.92969,19.92187 -7.61719,24.60937 -4.6875,4.6875 -19.33593,4.6875 -19.33594,0 -24.60938,-3.51562 -5.27344,-2.92969 -5.27344,-9.96094 z m -39.84375,0.585937 h 11.71875 l -1.75781,63.281248 q -5.85937,45.70313 -36.91406,64.45313 l -8.20313,-9.96094 q 31.05469,-17.57813 33.98438,-61.52344 z"
       id="path22" />
    <path
       d="M 835.66406,43.984375 V 54.53125 l -14.0625,35.15625 q 12.30469,16.40625 12.30469,32.22656 0,23.4375 -17.57813,23.4375 l -8.20312,-1.17187 -2.34375,-11.71875 10.54687,1.75781 q 7.03125,0 7.03125,-12.30469 0,-15.23437 -12.89062,-30.468748 L 823.94531,54.53125 H 802.26562 V 173.47656 H 791.71875 V 43.984375 Z m 82.61719,12.304687 V 80.898437 H 907.73437 V 66.25 h -55.66406 v 15.820312 h -9.96094 v -25.78125 h 32.8125 l -7.61718,-14.0625 11.71875,-3.515625 q 5.27343,8.203125 8.20312,17.578125 z m -65.625,25.195313 h 52.73437 v 11.132812 h -52.73437 z m -12.30469,26.367185 h 77.92969 v 10.54688 h -22.85156 v 38.67187 q 0,2.34375 1.17187,2.92969 1.17188,1.17187 6.44531,1.17187 5.85938,0 7.61719,-2.34375 1.75781,-2.34375 2.34375,-14.0625 l 10.54688,4.10157 q -2.34375,15.82031 -5.85938,19.33593 -3.51562,3.51563 -14.64844,3.51563 -12.30468,0 -15.82031,-2.92969 -2.92969,-2.34375 -2.92969,-9.375 v -41.01562 h -13.47656 q -0.58594,23.4375 -7.03125,35.15625 -5.85937,11.71875 -20.50781,18.75 l -7.61719,-9.96094 q 13.47656,-6.44531 18.75,-15.82031 5.27344,-9.375 6.44531,-28.125 h -20.50781 z"
       id="path24" />
    <path
       d="m 1001.7969,43.984375 h 67.3828 v 65.625005 h -11.7188 v -7.61719 h -39.8437 v 51.5625 q 0.5859,5.27343 16.9922,5.27343 24.6094,0 28.125,-4.6875 4.1015,-4.6875 5.8594,-23.4375 l 11.1328,2.92969 q -2.3438,26.36719 -11.1328,32.22656 -5.2735,4.6875 -33.9844,4.6875 -19.9219,0 -24.6094,-2.92968 -4.1016,-2.92969 -4.1016,-10.54688 V 90.859375 h 51.5625 V 55.117187 h -55.664 z M 984.80469,62.148437 995.35156,66.25 q -14.64844,31.054687 -33.39844,52.14844 l 26.95313,-7.61719 2.92969,9.375 q -19.92188,7.61719 -44.53125,11.71875 l -3.51563,-9.96094 q 12.89063,-12.30468 24.60938,-31.054685 L 947.30469,94.375 944.96094,83.242187 q 13.47656,-16.40625 22.26562,-44.53125 l 11.13281,3.515625 q -8.20312,24.609375 -20.50781,40.429688 l 16.99219,-1.757813 z m 7.03125,75.000003 2.34375,10.54687 -46.875,13.47656 -4.6875,-12.30468 z"
       id="path26" />
    <path
       d="m 1099.375,45.742187 h 58.0078 v -7.03125 h 11.7188 v 7.03125 h 59.7656 V 56.875 h -59.7656 v 6.445312 h 48.0468 v 29.882813 h -48.0468 v 7.031255 h 49.8047 v 19.33593 h 13.4765 v 11.13281 h -13.4765 v 24.60938 h -11.7188 v -4.6875 h -38.0859 v 8.78906 q 0,14.64844 -15.8203,14.64844 l -21.6797,-1.17188 -2.3438,-11.13281 22.2656,1.17188 q 3.5157,0 4.6875,-1.75782 1.1719,-1.75781 1.1719,-10.54687 h -53.3203 v -11.13281 h 53.3203 v -8.78907 h -59.7656 v -11.13281 h 59.7656 v -8.20312 h -53.3203 v -11.13281 h 53.3203 v -7.031255 h -47.4609 V 63.320312 h 47.4609 V 56.875 h -58.0078 z m 22.2656,36.328125 h 35.7422 v -7.617187 h -35.7422 z m 47.461,-7.617187 v 7.617187 h 36.3281 v -7.617187 z m 0,36.914065 v 8.20312 h 38.0859 v -8.20312 z m 0,19.33593 v 8.78907 h 38.0859 v -8.78907 z"
       id="path28" />
  </g>
  <g
     aria-label="杨显惠"
     id="text8"
     class="author"
     style="font-size:105px;font-family:'Source Han Sans HC';letter-spacing:5px;text-anchor:middle">
    <path
       d="m 544.0625,293.96484 h 15.17578 v -18.86718 h 8.20313 v 18.86718 h 14.35546 v 7.79297 h -14.35546 v 4.10156 l 15.58593,19.27735 -5.33203,7.79297 -10.2539,-15.9961 v 52.5 h -8.20313 v -46.34765 q -4.92187,13.94531 -13.53516,24.19922 l -5.74218,-5.74219 q 13.53515,-16.81641 18.45703,-39.78516 H 544.0625 Z m 53.32031,25.01953 h -12.71484 l -3.28125,-6.97265 q 21.32812,-11.48438 35.27344,-25.42969 h -32.40235 v -8.20312 h 44.70703 v 7.38281 q -14.76562,15.58594 -31.58203,25.83984 h 37.32422 q -0.41016,44.29688 -2.87109,50.85938 -2.46094,6.5625 -9.84375,6.5625 l -9.84375,-0.82032 -0.41016,-7.79296 9.43359,0.82031 q 2.46094,0 3.28125,-4.92188 l 2.05079,-37.32422 h -4.92188 q -4.51172,31.17188 -27.07031,50.44922 l -6.15235,-6.5625 q 21.32813,-16.8164 25.42969,-43.88672 h -8.20312 q -4.51172,20.91797 -21.73828,36.09375 l -6.15235,-5.74218 q 15.58594,-13.53516 19.6875,-30.35157 z"
       id="path31" />
    <path
       d="m 665.13672,278.78906 h 69.72656 v 42.2461 h -69.72656 z m 8.20312,17.63672 h 53.32032 v -9.84375 h -53.32032 z m 0,16.81641 h 53.32032 v -9.84375 h -53.32032 z m -20.09765,43.88672 h 32.8125 v -32.40235 h 8.20312 v 32.40235 h 12.30469 v -32.40235 h 8.20312 v 32.40235 h 31.99219 v 7.38281 h -93.51562 z m 14.76562,-30.76172 q 7.38281,10.2539 12.30469,21.73828 l -7.38281,4.10156 q -4.51172,-11.07422 -11.89453,-21.32812 z m 63.57422,0.82031 7.38281,4.10156 q -5.74218,10.66406 -14.35547,20.50781 l -5.33203,-5.33203 q 7.38282,-9.43359 12.30469,-19.27734 z"
       id="path33" />
    <path
       d="m 810.82031,340.72266 q 6.5625,6.15234 11.07422,13.125 l -6.97266,4.10156 q -4.10156,-6.97266 -10.66406,-13.125 z m 33.22266,1.64062 q 7.79297,8.20313 12.71484,17.22656 l -7.79297,4.51172 q -4.51172,-9.02344 -12.30468,-17.22656 z m -57.42188,0.82031 h 8.20313 v 15.58594 q 0,2.87109 15.17578,2.87109 16.40625,0 18.86719,-2.05078 2.87109,-2.05078 2.87109,-9.43359 l 8.20313,2.46094 q -0.82032,11.07422 -5.33204,13.53515 -4.10156,2.8711 -24.60937,2.8711 -15.58594,0 -19.6875,-2.05078 -3.69141,-2.05079 -3.69141,-5.74219 z m -11.48437,0.41016 6.97265,4.10156 Q 775.95703,360 769.80469,367.38281 l -6.5625,-5.74219 q 7.38281,-8.61328 11.89453,-18.04687 z m -7.79297,-62.75391 h 38.14453 v -5.74218 h 8.20313 v 5.74218 h 38.96484 v 6.97266 h -38.96484 v 5.33203 h 31.17187 v 31.99219 h -2.46094 q 7.38282,6.97265 12.30469,14.35547 l -7.38281,4.51172 -5.33203,-7.38282 -74.23828,4.51172 -1.23047,-7.79297 38.96484,-1.64062 v -6.5625 h -31.17187 v -31.99219 h 31.17187 v -5.33203 h -38.14453 z m 14.35547,25.01953 h 23.78906 v -5.74218 h -23.78906 z m 31.99219,-5.74218 v 5.74218 h 22.96875 v -5.74218 z m -31.99219,18.04687 h 23.78906 v -5.74219 h -23.78906 z m 31.99219,-5.74219 v 5.74219 h 22.96875 v -5.74219 z m 22.55859,17.63672 -5.74219,-4.92187 h -16.8164 v 6.15234 z"
       id="path35" />
  </g>
</svg>
