<?xml version="1.0" encoding="utf-8"?>
<svg xmlns="http://www.w3.org/2000/svg" version="1.1" viewBox="0 0 1400 420">
	<title>The titlepage for Din Xi Gu Er Yuan Ji Shi</title>
	<g aria-label="定西孤兒院紀事">
		<path d="M193.60,103.30C190.45,130.45,182.20,151.90,165.40,164.95C168.10,166.60,172.75,170.35,174.55,172.45C184.60,163.75,191.80,152.35,197.05,138.40C210.85,164.35,233.35,169.60,264.70,169.60L299.80,169.60C300.25,166.30,302.35,160.90,304.00,158.20C296.65,158.35,270.85,158.35,265.30,158.35C256.45,158.35,248.20,157.90,240.70,156.55L240.70,126.25L285.40,126.25L285.40,115.75L240.70,115.75L240.70,91.15L279.25,91.15L279.25,80.20L191.65,80.20L191.65,91.15L229.00,91.15L229.00,153.40C216.70,148.75,207.25,139.90,201.40,124.15C202.90,118.00,204.10,111.40,205.00,104.50Z  M223.90,36.10C226.45,40.60,229.15,46.30,230.80,50.95L172.30,50.95L172.30,83.65L183.40,83.65L183.40,61.60L286.15,61.60L286.15,83.65L297.70,83.65L297.70,50.95L243.70,50.95C242.20,46.00,238.30,38.50,235.00,32.95Z"/>
		<path d="M323.85,43.75L323.85,54.70L368.40,54.70L368.40,76.45L331.95,76.45L331.95,171.40L342.90,171.40L342.90,162.10L437.85,162.10L437.85,170.95L449.10,170.95L449.10,76.45L411.15,76.45L411.15,54.70L455.85,54.70L455.85,43.75Z  M342.90,151.60L342.90,123.40C344.85,125.05,348.30,129.25,349.50,131.50C372.00,120.25,377.70,102.85,378.45,86.80L400.20,86.80L400.20,110.50C400.20,122.65,403.20,125.80,415.50,125.80C418.05,125.80,433.20,125.80,435.90,125.80L437.85,125.80L437.85,151.60Z  M342.90,123.10L342.90,86.80L368.25,86.80C367.50,100.00,362.85,113.50,342.90,123.10Z  M378.60,76.45L378.60,54.70L400.20,54.70L400.20,76.45Z  M411.15,86.80L437.85,86.80L437.85,114.85C437.55,115.15,436.65,115.15,434.85,115.15C431.70,115.15,419.10,115.15,416.85,115.15C411.60,115.15,411.15,114.55,411.15,110.50Z"/>
		<path d="M596.75,58.75L587.45,59.50C589.70,105.25,593.90,148.30,606.80,171.85C608.60,169.00,612.50,165.25,615.20,163.30C603.20,143.05,598.70,100.90,596.75,58.75Z  M497.15,74.95L497.15,106.75L475.40,113.95L478.25,124.90L497.15,118.00L497.15,157.45C497.15,159.40,496.40,159.85,494.45,160.00C492.65,160.00,486.65,160.00,479.90,159.85C481.40,162.85,482.75,167.65,483.20,170.50C492.95,170.65,498.80,170.35,502.70,168.55C506.60,166.60,507.80,163.45,507.80,157.45L507.80,114.10L528.05,106.45L526.55,96.40L507.80,103.00L507.80,78.55C516.20,70.00,525.20,58.30,531.20,47.50L523.70,42.55L521.60,43.15L478.85,43.15L478.85,53.80L514.25,53.80C509.45,61.45,503.15,69.55,497.15,74.95Z  M533.75,45.70L533.75,74.95C533.75,100.30,532.40,137.80,517.25,164.65C519.35,165.70,523.85,169.00,525.65,170.95C541.55,142.60,543.95,101.50,543.95,74.95L543.95,53.95C567.35,51.55,593.15,47.65,611.15,42.40L602.60,33.70C586.40,38.65,558.35,43.00,533.75,45.70Z  M552.05,166.75C554.45,165.10,558.35,163.60,582.35,156.85C583.55,161.20,584.60,165.25,585.20,168.85L593.60,166.15C591.20,154.60,585.35,136.90,579.50,123.40L571.70,125.95C574.55,132.55,577.40,140.35,579.80,148.00L560.90,152.65C569.90,133.60,570.35,111.10,570.35,94.00L570.35,62.50L560.60,62.50L560.60,93.85C560.60,114.25,560.30,140.20,545.15,158.80C547.10,160.45,550.70,164.50,552.05,166.75Z"/>
		<path d="M649.00,47.80L648.85,102.85L648.85,113.35L678.40,113.35C675.85,139.15,668.20,155.20,631.90,163.15C634.30,165.25,637.45,169.30,638.65,172.00C678.10,162.40,687.40,143.50,690.85,113.35L707.95,113.35L707.95,155.65C707.95,166.75,711.70,169.75,726.10,169.75C728.95,169.75,746.95,169.75,750.10,169.75C763.30,169.75,766.45,164.05,767.65,140.80C764.50,140.20,759.85,138.70,757.30,137.05C756.70,157.90,755.65,161.05,749.20,161.05C745.15,161.05,730.30,161.05,727.30,161.05C720.55,161.05,719.50,160.30,719.50,155.80L719.50,113.35L752.35,113.35L752.35,44.35L706.30,44.35L706.30,54.70L741.10,54.70L741.10,72.55L708.55,72.55L708.55,82.60L741.10,82.60L741.10,102.85L661.00,102.85L661.00,82.60L692.80,82.60L692.80,72.55L661.00,72.55L661.00,53.65C673.30,50.65,686.50,46.75,696.70,42.70L687.70,34.75C678.55,39.25,662.65,44.35,649.00,47.80Z"/>
		<path d="M849.75,79.45L849.75,89.35L910.20,89.35L910.20,79.45Z  M838.20,106.45L838.20,116.65L859.20,116.65C857.10,139.90,851.10,154.75,825.15,162.85C827.55,164.95,830.55,169.15,831.75,171.85C860.25,161.95,867.60,144.10,870.00,116.65L885.90,116.65L885.90,156.10C885.90,167.05,888.30,170.20,898.80,170.20C900.90,170.20,910.05,170.20,912.30,170.20C921.45,170.20,924.15,165.10,925.05,145.60C922.05,144.85,917.70,143.20,915.45,141.25C915.15,157.90,914.40,160.30,911.10,160.30C909.15,160.30,901.95,160.30,900.45,160.30C897.15,160.30,896.55,159.70,896.55,155.95L896.55,116.65L923.25,116.65L923.25,106.45Z  M867.90,36.10C870.90,41.05,874.05,47.50,876.00,52.60L837.60,52.60L837.60,79.15L848.25,79.15L848.25,62.50L911.55,62.50L911.55,79.15L922.35,79.15L922.35,52.60L885.00,52.60L887.85,51.55C886.05,46.45,881.85,38.65,878.10,32.80Z  M791.85,40.15L791.85,171.70L802.05,171.70L802.05,50.35L821.85,50.35C818.70,60.40,814.20,73.60,809.85,84.25C820.65,96.25,823.50,106.60,823.50,114.85C823.50,119.50,822.60,123.70,820.20,125.35C819.00,126.10,817.35,126.55,815.55,126.70C813.15,126.85,810.30,126.70,806.85,126.55C808.50,129.40,809.55,133.75,809.70,136.45C813.00,136.60,816.75,136.60,819.75,136.15C822.90,135.85,825.45,134.95,827.55,133.45C831.75,130.30,833.55,124.00,833.55,115.90C833.55,106.45,831.00,95.65,820.05,83.05C825.15,71.05,830.70,56.35,835.05,44.05L827.70,39.70L826.05,40.15Z"/>
		<path d="M966.65,131.65C968.30,142.15,970.10,156.10,970.40,165.10L980.15,162.85C979.70,153.70,977.90,140.20,975.80,129.55Z  M949.70,130.45C947.90,142.60,945.20,156.10,941.30,165.25C943.85,166.00,948.50,167.65,950.60,168.85C954.20,159.40,957.50,145.30,959.45,132.25Z  M983.90,128.50C987.20,137.80,990.95,150.10,992.45,158.05L1001.75,154.90C1000.10,147.10,996.05,135.10,992.60,125.80Z  M1008.50,90.85L1008.50,152.35C1008.50,166.30,1013.45,169.90,1028.90,169.90C1032.20,169.90,1056.20,169.90,1059.65,169.90C1074.35,169.90,1077.65,163.60,1079.15,141.55C1075.85,140.80,1071.05,138.70,1068.35,136.75C1067.45,155.80,1066.40,159.25,1059.05,159.25C1053.95,159.25,1033.70,159.25,1029.95,159.25C1021.70,159.25,1020.20,158.05,1020.20,152.35L1020.20,101.80L1058.45,101.80L1058.45,109.30L1069.85,109.30L1069.85,41.65L1005.05,41.65L1005.05,53.20L1058.45,53.20L1058.45,90.85Z  M946.10,124.00C949.10,122.35,953.90,121.15,989.75,115.75C990.65,118.75,991.40,121.45,991.85,123.70L1001.30,119.95C999.50,112.30,994.55,99.70,990.05,89.95L981.35,92.95C983.15,97.15,985.10,101.95,986.75,106.60L960.95,110.20C973.40,96.70,985.85,79.90,995.90,62.80L986.15,56.95C982.85,63.40,978.80,70.00,974.75,76.15L957.35,77.65C966.20,66.25,974.75,51.85,981.80,37.75L971.45,33.40C964.85,49.75,953.60,67.15,950.15,71.50C947.00,76.15,944.15,79.15,941.60,79.90C942.80,82.60,944.45,87.85,945.05,90.10C947.30,89.05,950.75,88.30,967.85,86.20C961.85,94.45,956.60,100.90,954.05,103.45C949.25,108.85,945.65,112.60,942.35,113.35C943.70,116.35,945.50,121.75,946.10,124.00Z"/>
		<path d="M1110.10,140.35L1110.10,149.20L1158.85,149.20L1158.85,159.40C1158.85,162.10,1157.95,162.85,1155.10,163.00C1152.55,163.15,1143.40,163.30,1134.40,163.00C1135.90,165.55,1137.85,169.75,1138.45,172.45C1151.05,172.45,1158.85,172.30,1163.50,170.65C1168.15,169.00,1170.25,166.30,1170.25,159.40L1170.25,149.20L1206.25,149.20L1206.25,155.80L1217.65,155.80L1217.65,129.10L1233.25,129.10L1233.25,120.10L1217.65,120.10L1217.65,101.35L1170.25,101.35L1170.25,90.70L1215.25,90.70L1215.25,64.15L1170.25,64.15L1170.25,55.30L1230.25,55.30L1230.25,46.00L1170.25,46.00L1170.25,34.00L1158.85,34.00L1158.85,46.00L1100.05,46.00L1100.05,55.30L1158.85,55.30L1158.85,64.15L1115.80,64.15L1115.80,90.70L1158.85,90.70L1158.85,101.35L1111.45,101.35L1111.45,109.60L1158.85,109.60L1158.85,120.10L1097.20,120.10L1097.20,129.10L1158.85,129.10L1158.85,140.35Z  M1126.60,72.10L1158.85,72.10L1158.85,82.75L1126.60,82.75Z  M1170.25,72.10L1203.85,72.10L1203.85,82.75L1170.25,82.75Z  M1170.25,109.60L1206.25,109.60L1206.25,120.10L1170.25,120.10Z  M1170.25,129.10L1206.25,129.10L1206.25,140.35L1170.25,140.35Z"/>
	</g>
	<g aria-label="楊顯惠">
		<path d="M593.04,295.74L623.39,295.74L623.39,304.56L593.04,304.56Z  M593.04,281.56L623.39,281.56L623.39,290.18L593.04,290.18Z  M585.59,275.69L585.59,310.44L631.05,310.44L631.05,275.69Z  M578.03,315.90L578.03,322.62L590.95,322.62C586.33,330.39,579.61,337.32,572.47,342.15C574.14,343.31,576.66,345.82,577.61,347.08C581.39,344.14,585.17,340.57,588.74,336.58L598.09,336.58C592.62,345.62,584.01,354.86,576.03,359.69C577.72,360.94,579.71,363.05,580.87,364.73C589.79,358.43,599.55,347.08,605.01,336.58L614.04,336.58C609.95,347.71,602.91,358.43,595.25,363.99C597.14,365.14,599.24,367.14,600.39,368.71C608.69,362.00,616.46,348.98,620.45,336.58L628.53,336.58C627.17,352.55,625.80,358.85,623.91,360.74C623.08,361.57,622.24,361.79,620.87,361.79C619.40,361.79,616.14,361.79,612.37,361.37C613.52,363.25,614.04,366.19,614.15,368.19C618.25,368.40,622.02,368.40,624.12,368.19C626.64,367.98,628.33,367.35,630.00,365.56C632.74,362.52,634.52,354.33,636.10,333.44C636.20,332.28,636.41,330.07,636.41,330.07L593.88,330.07C595.67,327.66,597.25,325.14,598.61,322.62L638.40,322.62L638.40,315.90Z  M558.39,271.80L558.39,294.27L542.96,294.27L542.96,301.73L557.55,301.73C554.30,316.11,547.58,332.70,540.86,341.62C542.23,343.41,544.12,346.45,544.96,348.56C550.00,341.73,554.72,330.50,558.39,318.94L558.39,368.30L565.75,368.30L565.75,318.84C568.89,324.09,572.67,330.50,574.25,333.86L578.76,327.76C576.98,324.93,568.68,313.17,565.75,309.60L565.75,301.73L578.55,301.73L578.55,294.27L565.75,294.27L565.75,271.80Z"/>
		<path d="M714.70,315.69L738.33,315.69L738.33,325.88L714.70,325.88Z  M714.70,331.75L738.33,331.75L738.33,342.05L714.70,342.05Z  M714.70,299.73L738.33,299.73L738.33,309.70L714.70,309.70Z  M717.33,350.97C713.75,355.27,706.62,360.63,700.21,363.78C701.78,365.04,704.10,367.25,705.25,368.61C711.45,365.46,719.00,359.89,723.73,354.64Z  M730.13,354.86C734.97,358.95,740.74,364.73,743.58,368.61L749.46,364.51C746.41,360.63,740.42,355.06,735.60,351.18Z  M663.57,294.69L694.12,294.69L694.12,302.25L663.57,302.25Z  M663.57,282.09L694.12,282.09L694.12,289.55L663.57,289.55Z  M668.71,349.39C669.87,354.96,670.60,362.10,670.71,366.82L677.00,365.77C676.79,361.15,675.75,354.01,674.59,348.56Z  M679.74,348.66C681.62,353.60,683.62,360.11,684.36,364.31L690.13,362.62C689.39,358.53,687.29,352.12,685.20,347.30Z  M691.50,346.56C694.23,350.87,697.27,356.85,698.53,360.63L704.10,358.21C702.84,354.54,699.68,348.76,696.75,344.46Z  M658.95,347.40C657.37,353.07,654.53,360.74,651.07,365.25L657.05,368.30C660.41,363.46,663.04,355.69,664.83,349.71Z  M708.19,293.43L708.19,348.35L744.94,348.35L744.94,293.43L727.30,293.43L729.40,283.67L746.93,283.67L746.93,276.84L705.36,276.84L705.36,283.67L721.74,283.67C721.52,286.81,721.00,290.38,720.48,293.43Z  M680.47,327.98C681.52,327.45,683.30,327.03,690.24,326.40C687.40,330.07,684.99,333.01,683.83,334.17C681.62,336.27,679.95,337.85,678.37,338.06L680.37,344.14L680.37,344.25C681.94,343.51,684.67,342.99,701.05,341.31C701.78,342.99,702.31,344.67,702.73,346.14L707.88,343.83C706.72,339.84,703.88,333.75,701.26,329.13L696.43,331.12L698.85,336.06L688.35,337.11C693.80,331.55,699.26,324.51,703.99,317.26L697.69,314.75C696.64,316.74,695.38,318.84,694.12,320.73L687.09,321.25C689.71,317.89,692.34,313.69,694.33,309.39L689.08,307.71L701.15,307.71L701.15,276.74L656.74,276.74L656.74,307.71L661.67,307.71C659.89,313.17,656.63,318.52,655.59,319.89C654.64,321.36,653.70,322.20,652.43,322.41C653.27,324.09,654.22,327.03,654.53,328.39C655.59,327.87,657.37,327.45,664.09,326.72C661.36,330.60,658.84,333.54,657.58,334.69C655.59,336.90,653.90,338.48,652.23,338.79C652.96,340.37,653.90,343.41,654.22,344.77C655.69,344.04,658.32,343.62,672.91,342.05L673.75,345.72L678.58,344.04C677.85,340.15,675.85,334.38,673.64,329.87L669.13,331.33C669.87,333.12,670.71,335.01,671.34,337.00L661.99,337.85C667.35,332.28,672.70,325.04,677.42,317.58L671.34,315.17C670.28,317.16,669.02,319.26,667.76,321.25L660.84,321.78C663.36,318.21,666.09,313.69,667.98,309.07L663.25,307.71L688.03,307.71C686.14,313.06,682.57,318.21,681.41,319.57C680.47,320.94,679.52,321.78,678.37,321.99C679.00,323.67,680.05,326.61,680.47,327.98Z"/>
		<path d="M785.12,342.25L785.12,357.17C785.12,365.04,788.26,366.93,800.24,366.93C802.86,366.93,821.55,366.93,824.17,366.93C833.73,366.93,836.14,364.20,837.19,352.33C835.10,351.92,832.05,350.87,830.16,349.71C829.74,359.06,828.79,360.31,823.65,360.31C819.45,360.31,803.70,360.31,800.65,360.31C794.04,360.31,792.88,359.79,792.88,357.06L792.88,342.25Z  M800.13,341.10C806.53,344.36,814.10,349.50,817.66,353.18L822.91,348.35C819.13,344.67,811.47,339.84,805.17,336.69Z  M836.67,344.36C841.61,350.55,846.75,358.95,848.75,364.41L855.88,361.79C853.89,356.22,848.43,348.03,843.39,341.94Z  M772.83,341.83C770.84,348.13,767.16,356.43,762.96,361.37L769.68,365.25C773.88,359.69,777.35,351.18,779.55,344.56Z  M765.48,329.44L765.79,336.38C785.12,336.17,814.83,335.64,843.08,335.01C845.80,337.00,848.33,339.11,850.11,340.89L855.36,336.38C850.11,331.33,839.82,324.82,830.79,321.05L847.17,321.05L847.17,291.64L813.47,291.64L813.47,284.82L854.41,284.82L854.41,278.31L813.47,278.31L813.47,271.90L805.38,271.90L805.38,278.31L765.48,278.31L765.48,284.82L805.38,284.82L805.38,291.64L772.62,291.64L772.62,321.05L805.38,321.05L805.38,329.24Z  M780.08,308.76L805.38,308.76L805.38,315.69L780.08,315.69Z  M813.47,308.76L839.40,308.76L839.40,315.69L813.47,315.69Z  M780.08,296.79L805.38,296.79L805.38,303.72L780.08,303.72Z  M813.47,296.79L839.40,296.79L839.40,303.72L813.47,303.72Z  M824.80,324.72C827.64,325.88,830.68,327.35,833.52,328.92L813.47,329.13L813.47,321.05L829.63,321.05Z"/>
	</g>
</svg>
