<?xml version="1.0" encoding="utf-8"?>
<svg xmlns="http://www.w3.org/2000/svg" version="1.1" viewBox="0 0 1400 420">
	<title>The titlepage for Din Xi Gu Er Yuan Ji Shi</title>
	<g aria-label="定西孤儿院纪事">
		<path d="M193.60,103.30C190.45,130.45,182.20,151.90,165.40,164.95C168.10,166.60,172.75,170.35,174.55,172.45C184.60,163.75,191.80,152.35,197.05,138.40C210.85,164.35,233.35,169.60,264.70,169.60L299.80,169.60C300.25,166.30,302.35,160.90,304.00,158.20C296.65,158.35,270.85,158.35,265.30,158.35C256.45,158.35,248.20,157.90,240.70,156.55L240.70,126.25L285.40,126.25L285.40,115.75L240.70,115.75L240.70,91.15L279.25,91.15L279.25,80.20L191.65,80.20L191.65,91.15L229.00,91.15L229.00,153.40C216.70,148.75,207.25,139.90,201.40,124.15C202.90,118.00,204.10,111.40,205.00,104.50Z  M223.90,36.10C226.45,40.60,229.15,46.30,230.80,50.95L172.30,50.95L172.30,83.65L183.40,83.65L183.40,61.60L286.15,61.60L286.15,83.65L297.70,83.65L297.70,50.95L243.70,50.95C242.20,46.00,238.30,38.50,235.00,32.95Z"/>
		<path d="M323.85,43.75L323.85,54.70L368.40,54.70L368.40,76.45L331.95,76.45L331.95,171.40L342.90,171.40L342.90,162.10L437.85,162.10L437.85,170.95L449.10,170.95L449.10,76.45L411.15,76.45L411.15,54.70L455.85,54.70L455.85,43.75Z  M342.90,151.60L342.90,123.40C344.85,125.05,348.30,129.25,349.50,131.50C372.00,120.25,377.70,102.85,378.45,86.80L400.20,86.80L400.20,110.50C400.20,122.65,403.20,125.80,415.50,125.80C418.05,125.80,433.20,125.80,435.90,125.80L437.85,125.80L437.85,151.60Z  M342.90,123.10L342.90,86.80L368.25,86.80C367.50,100.00,362.85,113.50,342.90,123.10Z  M378.60,76.45L378.60,54.70L400.20,54.70L400.20,76.45Z  M411.15,86.80L437.85,86.80L437.85,114.85C437.55,115.15,436.65,115.15,434.85,115.15C431.70,115.15,419.10,115.15,416.85,115.15C411.60,115.15,411.15,114.55,411.15,110.50Z"/>
		<path d="M596.75,58.75L587.45,59.50C589.70,105.25,593.90,148.30,606.80,171.85C608.60,169.00,612.50,165.25,615.20,163.30C603.20,143.05,598.70,100.90,596.75,58.75Z  M497.15,74.95L497.15,106.75L475.40,113.95L478.25,124.90L497.15,118.00L497.15,157.45C497.15,159.40,496.40,159.85,494.45,160.00C492.65,160.00,486.65,160.00,479.90,159.85C481.40,162.85,482.75,167.65,483.20,170.50C492.95,170.65,498.80,170.35,502.70,168.55C506.60,166.60,507.80,163.45,507.80,157.45L507.80,114.10L528.05,106.45L526.55,96.40L507.80,103.00L507.80,78.55C516.20,70.00,525.20,58.30,531.20,47.50L523.70,42.55L521.60,43.15L478.85,43.15L478.85,53.80L514.25,53.80C509.45,61.45,503.15,69.55,497.15,74.95Z  M533.75,45.70L533.75,74.95C533.75,100.30,532.40,137.80,517.25,164.65C519.35,165.70,523.85,169.00,525.65,170.95C541.55,142.60,543.95,101.50,543.95,74.95L543.95,53.95C567.35,51.55,593.15,47.65,611.15,42.40L602.60,33.70C586.40,38.65,558.35,43.00,533.75,45.70Z  M552.05,166.75C554.45,165.10,558.35,163.60,582.35,156.85C583.55,161.20,584.60,165.25,585.20,168.85L593.60,166.15C591.20,154.60,585.35,136.90,579.50,123.40L571.70,125.95C574.55,132.55,577.40,140.35,579.80,148.00L560.90,152.65C569.90,133.60,570.35,111.10,570.35,94.00L570.35,62.50L560.60,62.50L560.60,93.85C560.60,114.25,560.30,140.20,545.15,158.80C547.10,160.45,550.70,164.50,552.05,166.75Z"/>
		<path d="M663.85,40.30L663.85,88.90C663.85,115.90,660.40,143.95,629.80,163.60C632.50,165.55,636.25,169.75,637.90,172.30C671.20,150.70,675.10,119.50,675.10,89.05L675.10,40.30Z  M719.50,40.15L719.50,151.30C719.50,166.30,722.95,170.50,735.25,170.50C737.80,170.50,750.55,170.50,752.95,170.50C765.85,170.50,768.55,161.05,769.60,133.30C766.60,132.55,761.95,130.45,759.10,128.20C758.50,153.10,757.75,159.70,752.20,159.70C749.50,159.70,739.00,159.70,736.60,159.70C731.80,159.70,730.90,158.35,730.90,151.45L730.90,40.15Z"/>
		<path d="M849.75,79.45L849.75,89.35L910.20,89.35L910.20,79.45Z  M838.20,106.45L838.20,116.65L859.20,116.65C857.10,139.90,851.10,154.75,825.15,162.85C827.55,164.95,830.55,169.15,831.75,171.85C860.25,161.95,867.60,144.10,870.00,116.65L885.90,116.65L885.90,156.10C885.90,167.05,888.30,170.20,898.80,170.20C900.90,170.20,910.05,170.20,912.30,170.20C921.45,170.20,924.15,165.10,925.05,145.60C922.05,144.85,917.70,143.20,915.45,141.25C915.15,157.90,914.40,160.30,911.10,160.30C909.15,160.30,901.95,160.30,900.45,160.30C897.15,160.30,896.55,159.70,896.55,155.95L896.55,116.65L923.25,116.65L923.25,106.45Z  M867.90,36.10C870.90,41.05,874.05,47.50,876.00,52.60L837.60,52.60L837.60,79.15L848.25,79.15L848.25,62.50L911.55,62.50L911.55,79.15L922.35,79.15L922.35,52.60L885.00,52.60L887.85,51.55C886.05,46.45,881.85,38.65,878.10,32.80Z  M791.85,40.15L791.85,171.70L802.05,171.70L802.05,50.35L821.85,50.35C818.70,60.40,814.20,73.60,809.85,84.25C820.65,96.25,823.50,106.60,823.50,114.85C823.50,119.50,822.60,123.70,820.20,125.35C819.00,126.10,817.35,126.55,815.55,126.70C813.15,126.85,810.30,126.70,806.85,126.55C808.50,129.40,809.55,133.75,809.70,136.45C813.00,136.60,816.75,136.60,819.75,136.15C822.90,135.85,825.45,134.95,827.55,133.45C831.75,130.30,833.55,124.00,833.55,115.90C833.55,106.45,831.00,95.65,820.05,83.05C825.15,71.05,830.70,56.35,835.05,44.05L827.70,39.70L826.05,40.15Z"/>
		<path d="M941.15,152.05L943.10,163.30C957.95,160.30,978.35,156.25,997.85,152.35L996.95,142.15C976.55,145.90,955.10,149.95,941.15,152.05Z  M944.00,96.40C946.55,95.20,950.45,94.45,971.45,91.90C963.95,101.35,957.05,108.85,953.90,111.70C948.65,117.10,944.90,120.70,941.30,121.45C942.65,124.45,944.60,130.00,945.20,132.40C948.50,130.60,954.05,129.40,996.35,122.80C996.05,120.40,995.75,115.90,995.90,113.05L962.30,117.70C975.35,104.80,988.40,88.75,999.65,72.25L989.75,65.80C986.60,71.20,983.00,76.60,979.25,81.70L956.90,83.65C966.80,71.05,976.70,55.00,984.65,39.10L973.55,34.30C966.05,52.30,953.60,71.35,949.70,76.30C946.10,81.25,943.25,84.70,940.25,85.30C941.60,88.30,943.40,93.85,944.00,96.40Z  M1004.00,43.75L1004.00,54.85L1058.60,54.85L1058.60,92.95L1006.40,92.95L1006.40,151.15C1006.40,165.40,1011.35,169.00,1027.40,169.00C1030.85,169.00,1055.00,169.00,1058.75,169.00C1074.35,169.00,1077.95,162.10,1079.45,137.95C1076.30,137.20,1071.50,135.25,1068.80,133.15C1067.90,154.45,1066.55,158.35,1058.15,158.35C1052.75,158.35,1032.35,158.35,1028.30,158.35C1019.45,158.35,1017.95,157.00,1017.95,151.15L1017.95,103.75L1058.60,103.75L1058.60,111.40L1069.85,111.40L1069.85,43.75Z"/>
		<path d="M1110.10,140.35L1110.10,149.20L1158.85,149.20L1158.85,159.40C1158.85,162.10,1157.95,162.85,1155.10,163.00C1152.55,163.15,1143.40,163.30,1134.40,163.00C1135.90,165.55,1137.85,169.75,1138.45,172.45C1151.05,172.45,1158.85,172.30,1163.50,170.65C1168.15,169.00,1170.25,166.30,1170.25,159.40L1170.25,149.20L1206.25,149.20L1206.25,155.80L1217.65,155.80L1217.65,129.10L1233.25,129.10L1233.25,120.10L1217.65,120.10L1217.65,101.35L1170.25,101.35L1170.25,90.70L1215.25,90.70L1215.25,64.15L1170.25,64.15L1170.25,55.30L1230.25,55.30L1230.25,46.00L1170.25,46.00L1170.25,34.00L1158.85,34.00L1158.85,46.00L1100.05,46.00L1100.05,55.30L1158.85,55.30L1158.85,64.15L1115.80,64.15L1115.80,90.70L1158.85,90.70L1158.85,101.35L1111.45,101.35L1111.45,109.60L1158.85,109.60L1158.85,120.10L1097.20,120.10L1097.20,129.10L1158.85,129.10L1158.85,140.35Z  M1126.60,72.10L1158.85,72.10L1158.85,82.75L1126.60,82.75Z  M1170.25,72.10L1203.85,72.10L1203.85,82.75L1170.25,82.75Z  M1170.25,109.60L1206.25,109.60L1206.25,120.10L1170.25,120.10Z  M1170.25,129.10L1206.25,129.10L1206.25,140.35L1170.25,140.35Z"/>
	</g>
	<g aria-label="杨显惠">
		<path d="M556.61,271.80L556.61,292.06L542.54,292.06L542.54,299.42L555.88,299.42C553.04,313.69,546.95,330.39,540.97,339.31C542.23,341.20,544.12,344.67,545.06,346.88C549.37,340.26,553.46,329.55,556.61,318.31L556.61,368.30L563.96,368.30L563.96,311.60C567.00,317.26,570.58,324.09,571.94,327.76L576.98,321.88C575.09,318.63,566.69,305.30,563.96,301.51L563.96,299.42L576.25,299.42L576.25,292.06L563.96,292.06L563.96,271.80Z  M581.08,314.32C582.02,313.49,585.38,312.96,590.11,312.96L595.36,312.96C590.74,324.82,582.65,334.80,572.57,341.10C574.36,342.15,577.29,344.46,578.45,345.72C588.74,338.26,597.88,326.82,603.02,312.96L614.25,312.96C607.33,335.85,594.83,353.28,576.35,363.88C578.03,364.94,581.08,367.14,582.34,368.40C600.82,356.64,613.94,338.06,621.61,312.96L628.64,312.96C626.64,343.83,624.44,355.80,621.61,358.85C620.55,360.11,619.61,360.42,617.93,360.31C616.04,360.31,612.15,360.31,607.75,359.89C609.00,361.89,609.85,365.14,609.95,367.35C614.36,367.56,618.56,367.67,621.18,367.35C624.23,367.04,626.23,366.19,628.33,363.68C632.11,359.26,634.31,346.35,636.62,309.50C636.73,308.34,636.83,305.61,636.83,305.61L595.14,305.61C605.64,299.00,616.57,290.38,627.80,280.51L621.92,276.00L620.13,276.74L577.29,276.74L577.29,284.19L611.74,284.19C602.39,292.38,592.21,299.42,588.74,301.62C584.54,304.25,580.55,306.45,577.72,306.87C578.87,308.87,580.45,312.54,581.08,314.32Z"/>
		<path d="M673.12,300.15L726.99,300.15L726.99,311.07L673.12,311.07Z  M673.12,283.25L726.99,283.25L726.99,294.06L673.12,294.06Z  M665.46,276.94L665.46,317.48L734.97,317.48L734.97,276.94Z  M733.60,325.35C730.13,332.07,723.84,341.10,719.11,346.77L725.20,349.81C730.03,344.14,735.91,335.85,740.42,328.50Z  M660.52,328.81C664.83,335.54,669.87,344.77,672.28,350.24L678.68,347.08C676.38,341.73,671.02,332.70,666.72,326.19Z  M707.46,321.68L707.46,355.90L691.91,355.90L691.91,321.68L684.46,321.68L684.46,355.90L651.70,355.90L651.70,363.46L748.30,363.46L748.30,355.90L715.01,355.90L715.01,321.68Z"/>
		<path d="M785.12,342.25L785.12,357.17C785.12,365.04,788.26,366.93,800.24,366.93C802.86,366.93,821.55,366.93,824.17,366.93C833.73,366.93,836.14,364.20,837.19,352.33C835.10,351.92,832.05,350.87,830.16,349.71C829.74,359.06,828.79,360.31,823.65,360.31C819.45,360.31,803.70,360.31,800.65,360.31C794.04,360.31,792.88,359.79,792.88,357.06L792.88,342.25Z  M800.13,341.10C806.53,344.36,814.10,349.50,817.66,353.18L822.91,348.35C819.13,344.67,811.47,339.84,805.17,336.69Z  M836.67,344.36C841.61,350.55,846.75,358.95,848.75,364.41L855.88,361.79C853.89,356.22,848.43,348.03,843.39,341.94Z  M772.83,341.83C770.84,348.13,767.16,356.43,762.96,361.37L769.68,365.25C773.88,359.69,777.35,351.18,779.55,344.56Z  M765.48,329.44L765.79,336.38C785.12,336.17,814.83,335.64,843.08,335.01C845.80,337.00,848.33,339.11,850.11,340.89L855.36,336.38C850.11,331.33,839.82,324.82,830.79,321.05L847.17,321.05L847.17,291.64L813.47,291.64L813.47,284.82L854.41,284.82L854.41,278.31L813.47,278.31L813.47,271.90L805.38,271.90L805.38,278.31L765.48,278.31L765.48,284.82L805.38,284.82L805.38,291.64L772.62,291.64L772.62,321.05L805.38,321.05L805.38,329.24Z  M780.08,308.76L805.38,308.76L805.38,315.69L780.08,315.69Z  M813.47,308.76L839.40,308.76L839.40,315.69L813.47,315.69Z  M780.08,296.79L805.38,296.79L805.38,303.72L780.08,303.72Z  M813.47,296.79L839.40,296.79L839.40,303.72L813.47,303.72Z  M824.80,324.72C827.64,325.88,830.68,327.35,833.52,328.92L813.47,329.13L813.47,321.05L829.63,321.05Z"/>
	</g>
</svg>
